<svg xmlns="http://www.w3.org/2000/svg" viewBox="0 0 64 64" width="64" height="64"><radialGradient id="G8C9UrOfXKZhDX~nuej0Ya" cx="36.833" cy="35.917" r="26" gradientUnits="userSpaceOnUse" spreadMethod="reflect"><stop offset="0" stop-color="#f4e9c3"/><stop offset=".219" stop-color="#f8eecd"/><stop offset=".644" stop-color="#fdf4dc"/><stop offset="1" stop-color="#fff6e1"/></radialGradient><path fill="url(#G8C9UrOfXKZhDX~nuej0Ya)" d="M10,8L10,8c2.209,0,4-1.791,4-4v0c0-2.209-1.791-4-4-4h0C7.791,0,6,1.791,6,4v0 C6,6.209,7.791,8,10,8z"/><radialGradient id="G8C9UrOfXKZhDX~nuej0Yb" cx="31.417" cy="29.917" r="28.77" gradientUnits="userSpaceOnUse" spreadMethod="reflect"><stop offset="0" stop-color="#f4e9c3"/><stop offset=".219" stop-color="#f8eecd"/><stop offset=".644" stop-color="#fdf4dc"/><stop offset="1" stop-color="#fff6e1"/></radialGradient><path fill="url(#G8C9UrOfXKZhDX~nuej0Yb)" d="M7.5,64L7.5,64c1.933,0,3.5-1.567,3.5-3.5v0c0-1.933-1.567-3.5-3.5-3.5h0 C5.567,57,4,58.567,4,60.5v0C4,62.433,5.567,64,7.5,64z"/><radialGradient id="G8C9UrOfXKZhDX~nuej0Yc" cx="32.5" cy="32" r="31.751" gradientUnits="userSpaceOnUse" spreadMethod="reflect"><stop offset="0" stop-color="#f4e9c3"/><stop offset=".219" stop-color="#f8eecd"/><stop offset=".644" stop-color="#fdf4dc"/><stop offset="1" stop-color="#fff6e1"/></radialGradient><path fill="url(#G8C9UrOfXKZhDX~nuej0Yc)" d="M9,29H5c-2.209,0-4,1.791-4,4v0c0,2.209,1.791,4,4,4h0.5C7.433,37,9,38.567,9,40.5v0 C9,42.433,7.433,44,5.5,44H5c-2.209,0-4,1.791-4,4v0c0,2.209,1.791,4,4,4h12.5c1.381,0,2.5,1.119,2.5,2.5v0 c0,1.381-1.119,2.5-2.5,2.5h0c-1.933,0-3.5,1.567-3.5,3.5v0c0,1.933,1.567,3.5,3.5,3.5h30c1.933,0,3.5-1.567,3.5-3.5v0 c0-1.933-1.567-3.5-3.5-3.5H47c-1.105,0-2-0.895-2-2v0c0-1.105,0.895-2,2-2h13c2.209,0,4-1.791,4-4v0c0-2.209-1.791-4-4-4h-3.5 c-1.381,0-2.5-1.119-2.5-2.5v0c0-1.381,1.119-2.5,2.5-2.5H57c2.209,0,4-1.791,4-4v0c0-2.209-1.791-4-4-4h-1.5 c-1.933,0-3.5-1.567-3.5-3.5v0c0-1.933,1.567-3.5,3.5-3.5h2c2.485,0,4.5-2.015,4.5-4.5v0c0-2.485-2.015-4.5-4.5-4.5H49 c-2.209,0-4-1.791-4-4v0c0-2.209,1.791-4,4-4h2c2.209,0,4-1.791,4-4v0c0-2.209-1.791-4-4-4L20,0c-2.209,0-4,1.791-4,4v0 c0,2.209,1.791,4,4,4h2c1.657,0,3,1.343,3,3v0c0,1.657-1.343,3-3,3H7.5C5.567,14,4,15.567,4,17.5v0C4,19.433,5.567,21,7.5,21H9 c2.209,0,4,1.791,4,4v0C13,27.209,11.209,29,9,29z"/><linearGradient id="G8C9UrOfXKZhDX~nuej0Yd" x1="31.5" x2="31.5" y1="57" y2="8" gradientUnits="userSpaceOnUse" spreadMethod="reflect"><stop offset="0" stop-color="#37ab6a"/><stop offset=".422" stop-color="#39b66f"/><stop offset="1" stop-color="#3ac074"/></linearGradient><path fill="url(#G8C9UrOfXKZhDX~nuej0Yd)" d="M23,15c0,3.314-2.686,6-6,6s-6-2.686-6-6s2.686-6,6-6S23,11.686,23,15z M17.5,42 c-2.485,0-4.5,2.015-4.5,4.5s2.015,4.5,4.5,4.5s4.5-2.015,4.5-4.5S19.985,42,17.5,42z M32.5,48c-2.485,0-4.5,2.015-4.5,4.5 s2.015,4.5,4.5,4.5s4.5-2.015,4.5-4.5S34.985,48,32.5,48z M45.173,48.829c1.56,1.561,4.091,1.561,5.657-0.004 c1.56-1.56,1.562-4.092,0-5.652c-1.563-1.564-4.097-1.564-5.657-0.004C43.608,44.735,43.61,47.267,45.173,48.829z M45.88,19.121 c1.172,1.172,3.071,1.172,4.243,0c1.169-1.169,1.172-3.071,0-4.245c-1.172-1.17-3.075-1.167-4.243,0 C44.705,16.05,44.708,17.949,45.88,19.121z M32.001,10.502c-0.001,1.373,1.116,2.5,2.496,2.5c1.382,0,2.505-1.126,2.505-2.5 c0-1.384-1.123-2.5-2.504-2.502C33.119,8,32.001,9.118,32.001,10.502z M53.5,27c-1.933,0-3.5,1.567-3.5,3.5s1.567,3.5,3.5,3.5 c1.933,0,3.5-1.567,3.5-3.5S55.433,27,53.5,27z M7.465,34.536c1.95,1.952,5.121,1.952,7.068,0.003 c1.956-1.954,1.955-5.123,0.003-7.074c-1.953-1.954-5.118-1.953-7.074,0.001C5.514,29.415,5.51,32.581,7.465,34.536z"/></svg>